<?xml version="1.0" encoding="utf-8"?>
<!-- Generator: Adobe Illustrator 16.0.0, SVG Export Plug-In . SVG Version: 6.00 Build 0)  -->
<!DOCTYPE svg PUBLIC "-//W3C//DTD SVG 1.1//EN" "http://www.w3.org/Graphics/SVG/1.1/DTD/svg11.dtd">
<svg version="1.1" id="Layer_1" xmlns="http://www.w3.org/2000/svg" xmlns:xlink="http://www.w3.org/1999/xlink" x="0px" y="0px"
	 width="730px" height="840px" viewBox="0 0 730 840" enable-background="new 0 0 730 840" xml:space="preserve">
<path opacity="0.08" fill="#FFFFFF" enable-background="new    " d="M349.202,285.113c0,0-68.131-93.575-155.632-43.304
	C106.069,292.082,36.72,370.318,36.72,370.318s-3.25,70.386,12.318,106.327c0,0,8.458,93.861,19.882,90.756
	c0,0,30.635,205.385,174.403,171.28c0,0,31.271-3.646,43.271-31.623c0,0,22.5,59.728,110.995,31.623
	c0,0,76.906-34.621,106.861-69.709c0,0-10.546,2.391,26.042-46.999c0,0,6.887,12.05,7.063-25.398l-10.976-46.794
	c0,0,23.675,16.904,45.588-11.693c0,0,95.986-116.634-22.67-173.586c0,0-17.333-51.332-49.333-54.666
	c0,0-46.667-29.334-68.667-12.667C431.5,297.167,395.082,283.861,349.202,285.113z"/>
<g>
	<path fill="#FAFAFC" d="M563.486,359.933c-4.523-3.482-9.729,2.643-6.66,6.992c11.938,16.964,25.787,30.832,35.598,49.6
		c12.404,23.717,9.523,34.793,0.559,60.877c-4.635,13.459-10.934,26.033-16.695,39.008c-6.281,14.154-7.252,22.906-24.664,31.656
		c-5.271,2.657-11.096,3.744-16.693,5.71c-0.287-0.458-0.484-1.021-0.771-1.455c3.949-9.262,3.842-19.387-2.898-30.378
		c1.176-0.974,1.74-2.696,0.564-4.294c-7.037-9.521-13.346-19.944-20.967-29.091c26.279-11.988,43.264-34.313,49.42-63.152
		c3.258-15.25-0.314-28.893-2.047-44.26c-1.51-13.396-3.283-25.315-11.588-35.175c3.51-3.601,0.215-10.604-5.145-8.113
		c0,0.004,0,0.004-0.01,0.004c-1.373-1.377-2.576-2.953-3.795-4.497c-0.021-0.798-0.234-1.604-0.928-2.354
		c-1.93-2.073-3.76-4.134-5.584-6.153c-0.061-0.085-0.113-0.175-0.188-0.256c-0.072-0.099-0.178-0.125-0.252-0.22
		c-4.406-4.856-8.885-9.375-14.943-12.606c-11.158-5.947-23.311-9.685-34.512-15.636c-8.598-4.568-14.504-9.424-24.566-10.519
		c-11.291-1.23-18.911,1.73-29.411,4.441c-0.897,0.234-1.614,0.633-2.228,1.113c-12.629-5.43-26.818-7.944-38.271-7.827
		c-11.221,0.107-25.293-0.593-37.607,1.764c-2.271-19.89-21.739-32.028-38.793-39.743c-15.626-7.061-39.08-17.955-55.972-20.325
		c-22.026-3.083-45.83,11.354-65.666,18.625c-22.493,8.24-45.731,19.646-63.557,36.188c-4.811,1.012-8.267,3.707-12.342,7.028
		c-2.002,1.643-3.896,3.393-5.87,5.066c-0.323-0.015-0.646,0.018-0.934,0.13c-15.591,6.12-30.58,27.688-42.005,39.828
		c-14.433,15.326-25.904,29.902-31.648,50.564c-7.639,27.519,1.059,66.438,14.164,91.96c0.628,1.217,1.508,1.872,2.459,2.209
		c-0.108,2.724-0.089,5.528,0.197,8.521c1.472,15.948-5.609,30.031-1.22,46.564c2.154,8.113,5.816,15.797,10.538,22.854
		c2.01,21.47,13.544,36.277,21.56,56.33c8.329,20.867,4.882,45.649,15.824,66.149c11.875,22.241,39.376,40.301,57.561,57.067
		c14.379,13.248,27.564,25.362,45.713,19.942c19.522,1.399,42.087,2.566,58.943-8.237c12.44-7.974,24.378-19.748,30.5-33.635
		c48.917,88.727,200.524,7.692,228.717-67.102c8.726-4.497,16.74-10.844,24.281-16.991c5.213-4.271,9.037-8.902,9.789-15.833
		c1.023-9.37-2.781-19.684-5.662-28.442c-2.359-7.173-4.523-16.688-8.041-24.709c17.617-6.464,30.524-3.934,41.727-23.563
		c11.992-21.044,24.289-42.63,33.453-64.897C629.689,429.885,593.645,383.113,563.486,359.933z M454.566,318.394
		c-3.025-8.016-8.752-14.568-15.949-19.729c4.506-1.045,9.01-2.104,14.129-1.878c10.563,0.462,17.52,3.741,26.494,8.291
		c5.764,2.917,11.49,5.901,17.531,8.062c11.678,4.169,18.488,6.548,25.248,13.096c-0.619,1.535-0.631,3.33,0.607,5.059
		c4.451,6.185,8.617,12.256,14.881,16.767c0.021,0.005,0.021,0.005,0.037,0.009c7.953,21.281,15.24,50.021,11.974,72.546
		c-4.13,28.392-22.239,46.843-45.929,60.23c-2.793-2.66-5.732-5.174-9.02-7.354c-4.191-2.779-10.396-7.018-16.051-8.06
		c-0.018-1.755-0.207-3.441-0.482-5.104c13.086-3.908,12.162-35.854,10.438-45.543c-3.49-19.569-16.912-34.466-19.199-55.061
		C467.572,344.306,465.346,329.223,454.566,318.394z M401.998,293.15c10.68,2.604,20.48,7.374,28.846,14.397
		c6.168,5.169,9.945,11.668,15.779,16.3c4.615,12.391,9.191,24.153,11.256,37.559c1.832,11.919,3.25,20.686,8.85,31.5
		c6.268,12.104,12.082,20.985,12.037,35.244c-0.01,3.343-0.727,18.026-4.049,22.232c-3.066-6.318-7.754-12.434-13.301-19.264
		c-12.584-15.501-28.705-38.47-48.514-44.802c-16.113-5.152-34.502,2.707-49.358,10.767c0.521-4.563,0.845-9.117,0.718-13.5
		c-0.521-17.637-7.69-40.18-20.213-55.405c-2.037-7.248-7.306-13.342-13.266-18.171C338.126,287.849,384.225,288.823,401.998,293.15
		z M238.245,588.1c11.794-5.323,22.224-12.387,28.273-22.763c2.352,1.634,4.784,3.031,7.342,3.821
		c9.855,8.868,21.523,16.336,34.556,10.594c7.953-3.502,19.424-10.55,26.46-15.8c7.683-5.763,6.112-9.748,10.986-17.009
		c14.9-22.215,44.807-52.198,22.162-78.976c-0.26-0.886-0.457-1.808-0.799-2.608c-2.388-5.502-6.697-8.104-11.147-10.729
		c0.997-0.481,1.742-1.621,1.132-2.678c-2.64-4.571-6.902-8.854-11.758-11.79c1.957-4.627,11.094-16.32,12.476-19.813
		c1.464-3.685,2.584-7.62,3.554-11.633c15.141-8.474,34.807-19.032,51.039-10.139c14.882,8.154,28.677,27.12,39.313,40.216
		c6.66,8.209,14.432,13.998,14.756,26.149c0.357,13.301-9.039,19.682-14.828,29.718c-6.338,10.979-12.998,21.247-19.369,32.29
		c-2.771,0.594-4.848,3.896-2.779,7.117c8.246,12.928-23.455,52.556-23.105,52.194c-18.508,18.354-37.922,20.249-61.465,22.834
		c-16.121,1.775-31.9,7.97-48.146,8.491c-21.317,0.683-33.542-5.925-47.535-16.437c0.125-0.231,0.305-0.386,0.395-0.688
		c0.574-2.029,0.144-4.06-1.598-5.377C244.905,592.62,241.296,590.756,238.245,588.1z M39.99,423.629
		c-5.134-29.936,4.003-51.554,22.996-73.74c10.717-12.518,22.242-23.408,34.646-34.226c3.555-3.108,6.175-5.486,8.042-8.056
		c5.08-3.563,10.035-7.229,14.936-11.063c3.896-3.052,7.144-5.668,9.227-9.687c33.218-18.354,63.871-36.192,100.796-47.997
		c32.743-10.466,94.478,17.262,109.557,48.733c-7.97,2.998-14.433,8.064-17.628,16.693c-13.409-8.388-29.009-14.152-44.573-17.265
		c-34.511-6.9-58.297-1.046-89.316,11.352c-0.548,0.025-1.086,0.151-1.616,0.416l-1.993,1.002c-0.979,0.487-1.696,1.281-2.199,2.185
		c-2.908,1.786-5.763,3.846-8.544,6.351c-7.208,6.459-11.175,14.34-19.496,19.989c-9.002,6.112-19.521,8.41-28.686,14.188
		c-18.202,11.475-30.032,30.809-19.468,51.316c0.035,0.072,0.099,0.104,0.134,0.17c-11.525,16.755-24.845,30.923-39.897,45.666
		c-8.069,7.897-13.365,15.796-16.012,24.936C44.792,452.306,42.243,436.79,39.99,423.629z M56.201,507.536
		c-0.521-22.024-5.655-44.063,12.512-61.048c9.371-8.77,54.608-41.342,47.284-58.192c-0.108-2.275-0.198-4.557-0.019-6.81
		c0.233-2.854,1.832-5.854,0.324-8.518c-0.62-1.108-1.499-1.606-2.755-1.548c5.681-17.942,32.644-23.314,48.001-33.25
		c5.422-3.511,8.662-7.267,13.266-11.347c8.779-7.771,16.479-13.399,25.446-18.901c8.096-2.098,16.237-5.296,23.965-6.801
		c16.354-3.189,33.821-5.998,50.174-2.825c15.223,2.958,26.389,9.656,39.726,17.276c5.126,2.933,9.326,6.997,13.679,10.798
		c7.019,16.646,20.285,29.857,23.122,49.129c2.89,19.514-0.438,45.236-12.045,61.883c-1.768-0.452-3.545-0.902-5.35-0.817
		c-3.069-1.001-6.265-0.43-9.487,3.281c-0.125,0.146-0.09,0.332-0.162,0.494c-8.967-8.46-23.534-3.833-34.745-4.412
		c-4.883-0.247-10.25-1.198-14.81,1.141c-3.698,1.896-5.933,5.318-8.024,8.827c0.269-1.625-0.879-3.114-2.765-3.007
		c-4.937,0.282-7.226,3.753-9.334,7.494c-0.359,0.075-0.728,0.162-1.041,0.471c-4.031,4.076-3.537,7.581-3.896,12.975
		c-0.862,12.791-12.216,15.376-17.341,25.989c-4.515,9.343-4.542,22.14,1.095,31.184c-0.539,12.229,8.042,20.656,17.888,30.071
		c4.111,3.94,8.77,8.985,13.885,12.925c-22.601,7.692-43.46,19.648-66.761,26.065c-31.828,8.769-47.858,7.942-76.526-6.318
		c-10.448-5.206-19.531-9.794-30.931-11.014C68.452,557.294,56.829,533.634,56.201,507.536z M236.701,740.56
		c-10.483,1.946-21.514,0.197-31.541,2.764c-0.816-0.458-1.795-0.717-2.971-0.538c-38.847,6.077-100.949-66.007-108.39-99.271
		c-5.583-24.943-20.159-50.838-24.88-76.114c5.842,6.023,12.458,11.265,19.423,15.493c1.347,0.825,2.719,0.896,3.922,0.528
		c17.916,7.604,35.472,15.526,53.702,19.504c16.506,38.973,42.625,65.197,83.5,75.936c18.149,4.757,33.712,14.298,49.456,22.124
		C274.551,719.072,254.266,737.281,236.701,740.56z M538.533,600.736c1.904,10.367,0.02,14.659-8.041,21.237
		c-7.359,6.014-14.863,11.695-20.572,19.359c-0.701,0.961-0.664,1.992-0.377,2.964c-28.775,35.803-57.84,65.403-103.186,80.216
		c-13.82,4.504-44.572,15.479-60.291,16.44c-29.754,1.822-40.13-14.164-51.134-32.914c7.952,2.864,16.165,4.82,25.006,4.93
		c-1.427,3.274,2.639,7.477,5.87,4.614c9.649-8.5,16.111-18.851,22.376-29.979c6.741-11.992,16.021-22.135,22.752-33.821
		c0.941-1.634-0.447-3.6-2.334-2.908c-10.293,3.754-16.39,15.276-21.729,24.279c-6.273,10.592-11.973,21.361-20.114,30.455
		c-9.424-3.707-19.432-5.476-28.506-10.115c-16.632-8.489-30.149-20.223-48.854-25.57c-24.189-6.902-41.136-7.656-61.438-25.062
		c-14.487-12.423-22.26-27.733-34.97-40.634c12.135,1.876,24.612,1.896,37.797-1.553c11.426-2.989,25.5-6.141,38.748-10.985
		c2.234,3.338,5.044,5.493,8.159,7.503c11.174,17.396,28.067,27.466,49.052,28.866c14.101,0.933,28.569-2.521,42.562-4.838
		c-0.009,0.313,0,0.646,0.216,0.978c35.93,55.479,84.208,11.48,126.125-13.272c16.678-9.837,52.73-25.374,70.631-46.314
		C529.109,576.843,536.523,589.75,538.533,600.736z M452.277,595.788c-36.674,24.479-78.195,72.246-119.824,26.921
		c0.736-0.117,1.508-0.271,2.244-0.379c14.667-2.02,31.792-1.06,45.813-5.97c19.691-6.899,43.566-26.011,52.525-45.153
		c5.807-12.426,13.066-28.725,5.188-40.43c16.893-12.793,28.793-28.864,36.893-48.815c0.807-1.989,1.309-3.815,1.83-5.654
		c6.775,2.755,12.697,6.488,18.165,10.793c-0.808,3.087,1.983,6.709,5.995,5.381c0.072-0.021,0.137-0.059,0.197-0.081
		c8.24,7.665,15.502,16.646,22.969,25.873c-1.75,1.076-2.916,3.257-2.02,5.523C533.885,553.129,472.492,582.3,452.277,595.788z"/>
	<path fill="#FAFAFC" d="M328.611,625.573c5.368,12.188,7.405,24.063,9.362,37.132c0.314,2.082,3.545,1.615,3.231-0.466
		c-1.894-12.771-2.594-27.143-10.439-37.95C329.922,623.12,328.046,624.281,328.611,625.573z M173.009,628.451
		c-1.974-0.23-2.315,2.818-0.341,3.069c9.047,1.141,15.438-5.618,21.614-11.309c10.95-10.071,25.302-14.989,36.225-24.952
		c0.826-0.754,0.018-2.442-1.077-1.806c-9.667,5.646-19.818,10.969-28.956,17.439C192.451,616.57,183.933,629.791,173.009,628.451z
		 M112.729,486.432c-5.834,0.884-10.286,3.64-16.398,2.554c-1.607-0.287-1.795,2.113-0.278,2.468
		c5.134,1.189,8.464,0.113,13.365-1.277c6.759-1.921,13.49-0.655,20.366-0.655c1.49,0,1.706-1.956,0.251-2.283
		C124.434,485.96,118.438,485.566,112.729,486.432z M135.985,428.215c6.794,7.096,15.456,9.964,23.606,15.205
		c8.194,5.271,15.644,11.309,24.333,15.867c9.72,5.096,20.051,8.41,29.997,12.891c6.794,3.062,12.664,7.68,20.141,8.816
		c0.772,0.113,0.88-1.055,0.134-1.188c-7.835-1.441-14.818-7.438-22.026-10.73c-10.385-4.752-21.093-8.841-31.011-14.563
		c-6.965-4.025-13.069-9.195-19.827-13.494c-7.89-5.014-16.489-8.635-24.18-14.025C136.389,426.465,135.294,427.495,135.985,428.215
		z M197.064,509.08c-11.139-0.305-23.211-2.892-33.731,1.896c-0.771,0.346-0.457,1.593,0.413,1.449
		c14.541-2.475,30.5-1.429,45.22-0.409c8.85,0.611,20.904,4.188,28.291-2.57c1.023-0.934-0.305-2.617-1.347-1.688
		C227.689,515.031,207.53,509.371,197.064,509.08z M94.051,475.456c-0.817,0.943,0.727,2.451,1.625,1.54
		c6.462-6.588,18.068-2.967,26.236-2.729c9.72,0.277,19.064,2.971,28.749,3.259c1.059,0.03,1.185-1.379,0.18-1.603
		c-12.082-2.648-23.426-3.894-35.678-4.909C107.774,470.401,99.409,469.32,94.051,475.456z M170.514,632.978
		c0.638-0.88-0.485-1.796-1.319-1.258c-5.835,3.762-12.234,6.041-18.481,8.949c-5.853,2.721-12.162,6.391-18.813,5.915
		c-1.544-0.107-1.813,2.232-0.269,2.378c6.768,0.639,13.481-2.479,19.54-5.135C157.715,640.966,166.152,639.079,170.514,632.978z
		 M329.491,710.769c-0.134-0.17-0.206-0.458-0.34-0.637c-0.036-2.621-0.251-5.206-1.292-7.686c-0.414-0.985-1.517-0.888-2.064-0.251
		c-1.49-5.601-2.245-12.001-2.927-16.354c-1.382-8.727-0.996-17.676-1.562-26.487c-0.664-10.268,1.292-24.89-4.766-33.74
		c-0.746-1.104-2.235,0.021-1.876,1.123c5.152,15.913,2.8,35.659,4.191,52.192c0.763,9.048,1.661,21.793,6.642,30.266
		c-0.224,4.543-0.735,9.075-0.099,13.646c0.35,2.494,4.219,1.921,3.878-0.575c-0.458-3.23-0.17-6.552-0.072-9.837
		C329.725,712.077,330.012,711.398,329.491,710.769z M262.892,585.945c4.667-7.082,9.254-13.066,15.313-19.037
		c0.664-0.638,0.071-1.946-0.88-1.479c-13.58,6.535-16.991,24.448-29.261,32.924c-1.346,0.915,0.243,2.872,1.58,1.975
		C255.281,596.518,259.158,591.59,262.892,585.945z M348.968,669.365c0.745,10.949-0.233,22.843,2.1,33.604
		c0.926,4.278,3.008,7.896,4.633,11.919c3.104,7.665,3.069,14.182,2.046,22.206c-0.233,1.885,2.675,2.208,2.926,0.322
		c0.683-5.01,1.796-10.16,0.996-15.225c-0.853-5.349-4.103-9.684-5.933-14.684c-4.613-12.515,0.476-26.541-4.748-38.723
		C350.494,667.642,348.888,668.205,348.968,669.365z M259.355,625.025c-4.515,3.269-7.755,8.958-10.609,13.625
		c-2.962,4.829-5.745,9.901-7.244,15.385c-0.439,1.615,2.001,2.575,2.45,0.941c3.034-11.175,10.914-19.126,16.623-28.784
		C261.061,625.384,260.164,624.441,259.355,625.025z M201.104,690.17c8.24-6.373,17-12.676,24.126-20.305
		c0.736-0.771-0.413-2.188-1.328-1.659c-9.586,5.581-17.691,13.294-26.371,20.149c-5.232,4.128-12.333,3.912-16.479,8.966
		c-1.023,1.239,0.933,2.54,1.975,1.428c2.073-2.206,5.592-1.318,8.15-2.298C194.793,695.062,198.07,692.492,201.104,690.17z
		 M199.631,707.455c-1.302,1.033,0.305,3.054,1.598,2.012c13.104-10.482,27.789-20.313,39.547-32.261
		c0.736-0.742-0.116-1.813-1.005-1.256C225.535,684.802,212.718,696.973,199.631,707.455z M179.697,608.327
		c8.087-5.223,19.72-5.349,25.876-13.281c0.727-0.935-0.61-2.208-1.526-1.438c-6.57,5.476-15.941,6.139-23.319,10.144
		c-7.396,4.028-13.858,12.618-23.058,11.92c-1.858-0.136-2.181,2.691-0.324,2.891C166.314,619.478,172.705,612.854,179.697,608.327z
		 M362.647,364.026c3.816-5.174,4.345-11.906,6.857-17.696c2.873-6.646,8.141-12.916,8.994-20.262
		c0.197-1.776-2.279-2.307-2.979-0.722c-2.768,6.357-5.996,12.483-8.789,18.831c-2.596,5.874-2.611,12.974-6.095,18.391
		C359.775,363.901,361.687,365.323,362.647,364.026z M438.465,415.329c-1.625,1.369,0.422,3.945,2.072,2.591
		c3.555-2.933,6.787-6.229,10.27-9.255c1.688-1.472,3.43-2.931,5.307-4.183c2.791-1.862,3.707-2.63,6.506-0.861
		c1.24,0.79,2.883-0.718,1.85-1.946c-3.5-4.192-6.139-2.751-10.52,0.115C448.205,405.561,443.697,410.938,438.465,415.329z
		 M353.294,334.025c-0.592,0.472,0.144,1.392,0.736,0.916C354.624,334.469,353.887,333.549,353.294,334.025z M418.422,390.271
		c-2.369,1.885,0.564,5.557,2.926,3.667c12.893-10.326,28.938-20.182,39.479-32.918c0.842-1.02-0.451-2.643-1.636-2.042
		C444.443,366.476,431.313,379.971,418.422,390.271z M365,392.627c14.559-9.407,14.297-30.118,22.637-43.904
		c4.586-7.567,16.531-20.316,10.51-29.718c-0.709-1.113-2.234-0.142-2.164,0.937c0.836,12.127-8.85,20.853-13.893,30.971
		c-6.438,12.891-6.393,30.324-18.904,39.453C361.661,391.478,363.464,393.617,365,392.627z M475.588,339.886
		c7.559-6.386,14.324-9.205,24.154-10.407c1.346-0.166,1.221-2.073-0.037-2.28c-6.408-1.059-12.439,0.332-18.066,3.563
		c-6.6,3.784-11.523,11.985-19.898,11.332c-2.027-0.162-2.389,2.936-0.343,3.153C467.197,345.867,471.227,343.573,475.588,339.886z
		 M269.462,447.101c-10.251-13.177-20.034-28.529-32.25-39.92c-0.763-0.709-2.154,0.404-1.625,1.307
		c8.437,14.414,21.272,27.335,31.863,40.226C268.51,449.99,270.485,448.409,269.462,447.101z M136.192,317.449
		c-8.168-8.549-17.252-16.441-25.698-24.688c-0.816-0.79-2.279-0.103-1.804,1.082c4.362,10.758,17.009,17.727,24.737,25.817
		C134.979,321.302,137.762,319.103,136.192,317.449z M323.854,419.271c-0.556,6.167-1.014,12.301,0.145,18.423
		c0.35,1.892,3.285,1.467,2.953-0.432c-2.19-12.521,4.712-27.842-1.858-39.385c-0.484-0.854-1.92-0.606-1.759,0.497
		C324.393,405.467,324.482,412.135,323.854,419.271z M349.525,610.511c1.508-9.562-8.707-14.316-9.173-23.563
		c-0.036-0.808-1.238-0.859-1.489-0.162c-3.528,9.444,9.397,14.201,7.952,23.43C346.545,611.939,349.247,612.225,349.525,610.511z
		 M259.23,475.774c1.104,0.905,2.369-0.871,1.292-1.786c-16.425-13.999-30.481-30.273-46.692-44.739
		c-8.724-7.78-17.188-15.4-24.503-24.585c-7.163-8.998-13.194-19.031-21.309-27.214c-0.844-0.853-2.046,0.141-1.436,1.148
		c11.184,18.414,25.195,35.374,41.351,49.566C225.607,443.694,241.126,460.962,259.23,475.774z M128.024,339.07
		c-7.073-8.897-13.868-20.249-22.673-27.457c-0.754-0.628-1.957,0.337-1.526,1.216c5.116,10.176,14.702,19.289,21.829,28.137
		C126.875,342.484,129.244,340.6,128.024,339.07z M370.34,597.65c-4.856-5.844-29.844-26.623-24.306-34.431
		c0.727-1.023-0.674-2.487-1.652-1.58c-5.484,5.104-0.494,10.538,3.419,15.752c6.005,7.997,13.517,14.685,19.883,22.377
		C369.074,601.452,371.748,599.336,370.34,597.65z M341.824,685.234c-0.602-2.782-4.093-8.366-2.451-11.005
		c0.691-1.104-0.7-2.72-1.786-1.688c-0.772,0.728-1.544,1.453-2.315,2.188c-0.521,0.485-0.817,1.258-0.485,1.948
		c7.701,16.236,2.872,36.046,6.624,53.503c0.502,2.37,4.236,1.832,3.734-0.558c-2.316-10.787-2.396-21.264-2.325-32.25
		C342.847,693.293,342.685,689.236,341.824,685.234z M396.926,474.53c-7.189,4.416-14.559,9.996-23.525,9.146
		c-1.293-0.125-1.508,1.861-0.215,2.012c7.377,0.836,14.604-2.518,20.77-6.265c7.541-4.582,18.545-7.369,24.092-14.531
		c0.539-0.688-0.412-1.55-1.086-1.037C410.865,468.49,403.396,470.545,396.926,474.53z M395.443,442.878
		c0.557-0.604-0.322-1.697-1.031-1.28c-10.035,5.855-18.949,14.652-27.969,21.955c-1.148,0.929,0.279,2.714,1.438,1.796
		C376.99,458.145,387.527,451.382,395.443,442.878z M517.1,442.043c-7.682,0.793-22.852,5.239-29.607,1.085
		c-1.447-0.89-3.006,1.196-1.563,2.161c6.355,4.241,14.316,1.899,21.391,1.184c12.745-1.293,25.695-1.576,38.396-3.061
		c1.291-0.148,1.06-1.844-0.037-2.1C536.434,439.153,526.418,441.08,517.1,442.043z M497.705,393.085
		c-5.02,2.61-8.77,7.273-13.016,10.899c-1.23,1.054,0.297,2.993,1.58,1.977c5.572-4.427,10.223-10.021,17.35-11.83
		c3.914-0.987,7.055-1.787,9.521-5.21c0.564-0.79-0.455-1.736-1.221-1.167C507.648,390.94,502.309,390.684,497.705,393.085z
		 M375.697,401.49c1.338,6.813-12.933,18.315-16.46,23.639c-4.704,7.063-8.105,15.008-11.292,22.828
		c-0.771,1.888,1.975,2.818,2.872,1.109c4.345-8.228,8.456-16.74,14.074-24.181c5.007-6.62,10.933-12.414,15.412-19.438
		c0.479-0.75,0.654-2.002-0.063-2.707c-0.754-0.749-1.508-1.499-2.262-2.244C377.152,399.687,375.42,400.108,375.697,401.49z
		 M508.482,609.325c-3.418-2.038-5.33-3.275-8.096-6.418c-6.813-7.756-15.098-13.715-22.475-20.948
		c-0.998-0.986-2.74-0.128-2.191,1.311c3.35,8.742,13.832,13.016,19.964,19.621c2.44,2.64,4.774,6.336,7.987,8.186
		c2.566,1.475,5.941,1.275,7.594,4.075c0.824,1.418,3.158,0.539,2.404-1.032c-0.939-1.965-1.523-3.169-3.313-4.335
		C509.775,609.406,509.014,609.64,508.482,609.325z M550.633,502.727c-10.869-6.036-26.174-0.668-34.646-11.563
		c-1.095-1.407-3.211,0.298-2.152,1.726c7.072,9.531,16.918,7.347,27.213,10.209c6.931,1.93,12.515,7.401,19.729,9.407
		c7.846,2.176,15.889,2.257,23.68,4.939c1.012,0.345,1.838-1.037,0.914-1.688c-4.559-3.22-9.344-4.215-14.811-5.312
		C561.979,508.727,558.01,506.823,550.633,502.727z M529.02,520.597c-0.809-0.628-2.045,0.333-1.588,1.271
		c4.598,9.552,16.311,14.014,22.322,22.72c1.256,1.804,3.896-0.323,2.658-2.13c-2.91-4.254-6.525-7.573-10.484-10.832
		C537.564,528.043,533.49,524.012,529.02,520.597z M193.079,547.214c-20.536,8.606-42.006,10.062-63.279,15.822
		c-0.924,0.251-0.717,1.742,0.234,1.49c22.798-5.94,44.86-6.39,66.905-15.526c11.525-4.775,22.923-9.854,34.43-14.666
		c9.111-3.807,17.844-7.183,24.414-14.732c0.754-0.876-0.557-1.983-1.418-1.354C236.521,531.281,213.355,538.715,193.079,547.214z
		 M475.398,404.439c0.746-0.857-0.41-2.312-1.416-1.768c-11.418,6.225-21.318,15.988-31.186,24.362
		c-1.551,1.318,0.354,3.707,1.984,2.479C455.125,421.727,466.818,414.209,475.398,404.439z M487.426,468.772
		c-0.807-0.834-2.225,0.238-1.436,1.15c4.291,4.941,11.021,5.519,17.215,5.656c7.469,0.166,14.838-0.657,22.27-0.99
		c1.193-0.056,0.924-1.685-0.035-1.917c-5.557-1.332-11.371-0.668-17.025-0.497C502.506,472.349,492.004,473.466,487.426,468.772z
		 M535.607,454.264c-10.939,0.915-22.322,1.481-33.301,1.188c-6.713-0.184-13.992-1.418-18.598,4.476
		c-0.969,1.248,0.861,3.058,2.047,1.952c5.654-5.229,18.223-1.927,25.645-2.218c8.465-0.332,17.045,0.613,24.748-3.51
		C537.125,455.62,536.756,454.161,535.607,454.264z M417.443,629.538c6.902,27.476,21.336,53.539,36.092,77.505
		c1.131,1.83,3.734-0.286,2.621-2.101c-14.938-24.439-25.24-49.833-36.344-76.078C419.285,627.61,417.094,628.148,417.443,629.538z
		 M402.033,638.99c0.447-1.104-0.979-2.172-1.904-1.383c-8.311,7.063,2.604,18.016,4.371,25.76
		c2.199,9.604,5.611,16.317,9.139,25.752c2.289,6.096,15.145,23.634,10.672,29.548c-1.074,1.429,1.133,3.009,2.227,1.625
		c0.682-0.854,1.365-1.704,2.029-2.551c0.305-0.376,0.367-0.968,0.158-1.397c-6.604-13.688-13.084-29.262-18.021-43.622
		c-1.688-4.873-1.652-9.801-3.481-14.657C404.869,651.787,399.035,646.351,402.033,638.99z M526.775,330.491
		c-19.928,10.73-39.971,21.084-59.732,31.888c-1.84,1.005-0.664,3.938,1.311,3.043c11.193-5.076,21.381-11.104,32.467-16.358
		c9.873-4.681,19.689-8.836,27.143-17.081C528.607,331.269,527.611,330.045,526.775,330.491z M272.514,344.481
		c-0.449-1.153-2.235-0.614-2.064,0.588c2.71,19.176,7.145,39.071,12.565,57.673c3.213,11.05,8.105,21.689,10.78,32.868
		c1.544,6.464,2.396,11.504,7.01,16.574c0.834,0.91,2.333-0.265,1.508-1.208c-5.924-6.829-5.834-15.949-8.222-24.116
		c-3.177-10.879-7.181-21.407-9.892-32.438C280.143,377.906,278.671,360.386,272.514,344.481z M568.916,497.476
		c-4.064-1.457-7.377-4.16-11.199-6.045c-5.395-2.661-10.549-3.231-16.373-4.614c-6.775-1.61-12.719-5.169-19.531-6.609
		c-1.545-0.321-2.205,2.315-0.652,2.706c5.652,1.438,10.385,4.663,15.895,6.453c6.373,2.064,12.758,2.325,18.912,5.336
		c4.379,2.15,8.168,5.089,12.881,6.554c5.689,1.771,11.463,1.358,16.496,5.208c1.053,0.797,2.451-0.666,1.607-1.689
		c-2.252-2.718-4.201-3.792-7.576-4.897C575.98,498.76,572.283,498.684,568.916,497.476z M153.389,293.253
		c3.671,8.027,11.399,15.165,16.982,21.988c1.274,1.56,3.68-0.366,2.441-1.95c-5.439-6.943-10.699-16.035-17.736-21.396
		C154.197,291.225,152.922,292.248,153.389,293.253z M181.563,299.882c-6.319-0.283-8.285-5.439-12.53-9.007
		c-0.674-0.563-1.67,0.296-1.32,1.05c2.693,5.794,6.839,10.582,13.517,10.973C183.179,303.014,183.511,299.971,181.563,299.882z
		 M432.871,529.551c-12.225-3.168-24.699-4.901-37.049-7.469c-7.326-1.521-14.146-3.34-20.572-7.263
		c-3.922-2.398-5.781-3.662-10.458-3.874c-0.753-0.035-1.157,1.158-0.331,1.374c5.008,1.309,8.516,5.181,12.979,7.499
		c3.824,1.989,8.203,3.044,12.387,4.05c3.842,0.931,41.291,6.176,41.002,9.093c-0.162,1.715,2.469,2.002,2.656,0.297
		c0.082-0.772,0.164-1.535,0.242-2.298C433.787,530.422,433.447,529.701,432.871,529.551z M592.98,438.365
		c-2.855,1.027-4.164-1.83-6.805-2.936c-1.977-0.834-4.094-1.068-6.229-1.011c-6.318,0.171-12.969,3.632-18.955,0.212
		c-1.33-0.754-2.767,1.082-1.438,1.975c9.73,6.517,21.066-3.137,30.123,5.286c0.468,0.436,1.201,0.261,1.679-0.039
		c0.897-0.571,1.786-1.157,2.657-1.769C595,439.41,594.004,438,592.98,438.365z M570.828,416.085
		c-1.473-0.162-1.732,2.121-0.26,2.286c5.52,0.611,11.029,1.228,16.551,1.838c1.482,0.164,1.732-2.123,0.262-2.284L570.828,416.085z
		 M471.162,602.443c11.041,17.501,26.139,33.039,39.188,49.079c0.934,1.148,2.711-0.271,1.797-1.438
		c-12.791-16.245-24.643-34.388-39.297-48.989C471.863,600.109,470.418,601.257,471.162,602.443z M214.459,290.511
		c-7.647-14.419-3.734-33.098-12.494-47.454c-0.332-0.534-1.059,0.02-0.889,0.534c2.791,8.531,5.87,17.861,6.651,26.833
		c0.664,7.479,0.431,14.46,3.931,21.291C212.557,293.451,215.365,292.235,214.459,290.511z M219.181,281.85
		c0.107,2.526,1.185,5.704,0.871,8.062c-0.18,1.337,1.894,1.562,2.073,0.231c0.404-2.979-0.826-5.036-0.835-8.06
		c-0.009-4.019,0.242-7.481-0.188-11.639c-1.042-10.146-1.275-20.456-3.393-30.459c-0.26-1.229-2.065-0.978-1.939,0.283
		c0.979,9.195,1.993,18.369,2.899,27.578C219.127,272.56,219.01,277.205,219.181,281.85z M266.33,263.634
		c1.606-3.272,3.761-6.279,5.269-9.595c1.149-2.522,1.211-6.17,3.142-8.139c0.341-0.341,0.036-1-0.467-0.774
		c-2.101,0.933-2.388,2.374-2.944,4.497c-1.275,4.883-4.327,8.927-6.535,13.418C264.319,263.993,265.863,264.58,266.33,263.634z
		 M297.843,290.35c5.995-4.614,13.193-8.81,18.211-14.514c4.282-4.865,6.705-11.148,10.854-16.192
		c0.556-0.682-0.413-1.438-1.062-1.009c-5.098,3.388-6.741,8.944-10.214,13.719c-4.829,6.637-12.655,11.367-19.01,16.47
		C295.653,289.614,296.856,291.117,297.843,290.35z M315.328,294.406c-1.58,1.328,0.431,3.853,2.01,2.511
		c7.952-6.761,16.425-14.693,23.014-22.798c0.592-0.736-0.341-1.997-1.203-1.505C330.012,277.802,323.343,287.661,315.328,294.406z
		 M75.606,435.59c0.61-0.041,0.736-1.037,0.135-1.208c-10.798-3.103-22.099-1.988-32.789-6.148c-1.4-0.548-2.244,1.629-0.834,2.19
		C52.287,434.481,64.691,436.338,75.606,435.59z M45.717,409.448c2.621,0.292,5.088,0.056,7.593,1.104
		c0.772,0.323,1.347-0.633,0.916-1.252c-1.346-1.92-3.249-2.35-5.493-2.641c-3.554-0.458-6.875-1.272-10.358-2.1
		c-1.948-0.458-2.315,2.684-0.35,3.104C40.601,408.222,43.087,409.151,45.717,409.448z M104.723,389.571
		c0.987-0.402,0.466-1.741-0.485-1.701c-5.26,0.243-10.86-5.021-15.456-7.188c-5.224-2.463-12.683-4.331-16.282-9.133
		c-0.898-1.203-2.603,0.22-1.795,1.437c3.967,5.995,12.844,8.194,18.885,11.372C93.548,386.438,99.822,391.559,104.723,389.571z
		 M119.03,591.348c0.438-0.503-0.233-1.292-0.808-1.005c-4.775,2.334-8.796,5.889-13.679,8.147
		c-5.502,2.541-11.211,3.626-17.09,4.813c-0.018,0.01-0.018,0.054,0.009,0.045C98.843,602.102,110.925,600.618,119.03,591.348z
		 M106.688,585.111c0.53-0.423,0-1.141-0.574-0.961c-5.269,1.616-10.502,3.527-15.358,6.139c-4.829,2.613-9.64,5.514-15.313,5.565
		c-1.525,0.009-1.804,2.379-0.269,2.369c5.188-0.026,9.694-1.991,14.217-4.397C95.029,590.826,101.653,589.023,106.688,585.111z
		 M192.972,315.87c3.446,5.78,4.291,12.911,8.724,18.132c0.79,0.92,2.271-0.283,1.463-1.167c-4.614-5.015-4.318-13.289-9.272-17.696
		C193.456,314.755,192.667,315.36,192.972,315.87z M434.723,554.89c-1.715-1.438-3.52-1.733-5.188-3.088
		c-0.479-0.378-1.213,0.214-0.943,0.762c1.982,4.085,7.207,7.738,10.482,11.05c7.998,8.098,17.639,14.361,24.863,23.157
		c1.076,1.311,3.148-0.341,2.063-1.651c-6.633-8.078-15.141-13.769-22.592-21.021C440.465,561.242,437.809,557.49,434.723,554.89z
		 M485.416,578.487c-6.553-7.585-14.451-13.186-21.99-19.703c-8.229-7.09-14.916-15.635-23.221-22.651
		c-0.619-0.521-1.4,0.395-0.949,1.005c12.502,16.785,30.803,27.195,44.328,42.813C484.564,581.088,486.404,579.625,485.416,578.487z
		 M465.221,497.703c-1.523-0.764-2.457,1.716-0.951,2.475c10.521,5.281,23.229,5.763,33.281,11.889
		c0.604,0.372,1.455-0.359,0.916-0.966c-3.717-4.137-8.582-5.218-13.77-6.73C478.111,502.444,471.396,500.793,465.221,497.703z
		 M368.23,625.49c0.609,2.138,1.508,4.22,2.477,6.212c0.988,2.028,3.949,5.402,3.762,7.448c-0.18,2.003,2.953,2.354,3.105,0.343
		c0.313-4.184-3.438-7.343-5.072-10.985c-2.621-5.854-2.521-12.152-4.406-18.148c-0.27-0.862-1.436-0.483-1.57,0.234
		C365.592,615.294,366.92,620.932,368.23,625.49z"/>
	<path fill="#000214" d="M266.788,501.071c0.808-0.295,1.266-0.663,1.732-1.382c0.745-1.145,1.158-2.805,0.449-4.089
		c-0.296-0.557-0.602-1.113-0.907-1.669c-3.536-6.479-12.368,0.53-6.785,5.435c0.466,0.413,0.951,0.834,1.418,1.252
		C263.808,501.587,265.513,501.546,266.788,501.071z M274.991,494.324c1.957-0.545,2.566-1.016,3.536-2.828
		c0.771-1.443,0.108-3.187-0.682-4.416c-0.359-0.552-0.718-1.104-1.068-1.658c-3.276-5.104-11.596,1.54-7.333,5.858
		c0.467,0.474,0.934,0.939,1.391,1.41C271.867,493.734,273.412,494.766,274.991,494.324z M273.474,469.954
		c1.571-1.255-0.386-3.7-1.948-2.438C269.946,468.772,271.903,471.218,273.474,469.954z M274.021,517.321
		c-0.485-0.964-0.951-1.637-1.525-2.272c-0.234-0.569-0.467-1.138-0.691-1.701c0.17-1.539-0.422-2.665-1.32-3.441
		c3.16-2.85-1.005-8.038-4.46-5.271c-1.696,1.354-1.499,3.308-0.512,4.671c-1.077,0.549-1.948,1.531-2.118,3.104
		c-0.593,5.242,1.256,9.371,6.857,9.985C272.873,522.685,275.251,519.823,274.021,517.321z M329.868,511.409
		c-0.107,0.547-0.125,0.941-0.161,1.36c-2.423,1.934-4.766,3.935-7.297,5.775c-1.319,0.96-1.75,2.226-1.661,3.473
		c-1.13,0.127-2.189,0.328-3.464,0.727c-7.558,2.341,1.571,13.823,5.538,6.922c0.673-1.177,1.113-2.182,1.479-3.267
		c1.187,0.331,2.503,0.197,3.733-0.809c3.546-2.888,7.055-5.396,8.976-9.631c0.717-1.604-0.09-3.371-1.311-4.417
		c-1.104-0.936-1.696-1.273-2.98-1.876C331.412,509.051,330.102,510.172,329.868,511.409z M338.557,494.745
		c-1.616,1.198-2.029,2.798-1.814,4.339c-1.346-3.639-5.044-2.542-6.704-0.333c-3.42,0.35-6.525,4.722-2.558,7.966
		c1.723,1.403,2.611,1.88,4.811,2.063c1.463,0.121,2.737-0.896,2.944-2.36c0.018-0.188-0.018-0.281,0-0.457
		c1.472,0.301,3.123-1.101,2.782-2.636c-0.197-0.859-0.404-1.598-0.628-2.329c1.454,2.587,4.757,4.236,7.61,1.797
		c2.496-2.146,4.614-4.719,5.655-7.872c0.7-2.149-0.925-4.188-3.178-3.974C344.175,491.275,341.195,492.781,338.557,494.745z
		 M331.358,472.461c0.108-0.252,0.188-0.489,0.305-0.745c2.235-5.085-5.529-9.371-8.617-4.673c-0.233,0.358-0.466,0.719-0.709,1.077
		c-0.161,0.246-0.063,0.479-0.18,0.728c-1.203,2.563-1.983,5.126-2.576,7.907c-0.377,1.755,0.18,3.063,1.132,3.978
		c-2.28,3.625,2.638,8.615,6.561,4.475c0.79-0.829,1.248-1.443,1.571-2.122c1.598,2.555,5.063,4.089,7.458,0.604
		c1.239-1.796,1.822-2.697,1.804-4.874c0-1.216-0.637-1.974-1.633-2.418C337.139,473.698,334.194,470.711,331.358,472.461z
		 M279.91,484.004c1.248,0.029,2.549-0.259,3.797-1.26c1.606-1.284,2.253-2.885,2.253-4.46c1.104,0.04,2.253-0.206,3.356-1.095
		c1.454-1.157,1.975-2.612,1.921-4.035c2.495-0.04,4.659-0.82,6.525-2.564c0.951,0.753,2.074,1.247,3.222,1.27
		c-0.134,1.288,0.018,2.607,0.808,3.601c2.118,2.645,7.396,2.4,8.365-1.298c0.351-1.338,0.655-2.574,0.889-3.938
		c0.207-1.221-0.879-2.576-2.109-2.642c-0.898-0.044-1.75-0.013-2.603,0.008c0.502-0.979,0.843-1.979,0.906-3.371
		c0.081-1.989-1.122-3.505-3.097-3.865c-2.244-0.402-3.519-0.021-5.618,0.858c-3.393,1.408-3.86,4.169-2.891,6.532
		c-2.083,0.61-3.985,0.916-6.31,0.359c-0.458-0.107-0.754,0.121-1.104,0.247c-1.633-0.902-3.67-1.01-5.563,0.507
		c-1.113,0.888-1.598,1.951-1.804,3.033c-1.535-0.336-3.24-0.061-4.847,1.226c-4.443,3.557-1.714,9.438,2.459,10.694
		C278.734,484.362,279.497,484.462,279.91,484.004z M310.912,525.244c-3.877-0.601-7.189,1.611-10.214,3.873
		c-6.067,4.554,1.589,14.128,7.36,9.201c2.873-2.46,5.762-5.207,6.014-9.109C314.215,527.209,312.895,525.557,310.912,525.244z
		 M308.694,539.11c-1.032,0.826-1.499,1.822-1.66,2.837c-0.691-1.042-1.777-1.855-3.33-2.137c-2.827-0.493-5.933-0.619-9.047-0.629
		c3.33-3.41,1.337-8.313-2.253-9.917c-0.916-1.716-2.647-3.025-5.385-2.938c-3.375,0.107-5.565-4.406-6.176-7.122
		c-0.529-2.354-3.589-3.38-5.134-1.262c-5.663,7.791,0.691,16.856,8.859,19.003c0.386,0.941,0.996,1.77,1.741,2.477
		c-2.234,0.413-4.46,2.516-3.087,4.945c4.191,7.414,12.503,4.104,19.387,5.323c3.187,0.563,5.018-1.679,5.269-4.174
		c1.454,2.106,4.326,3.267,6.911,1.202C319.689,542.799,313.604,535.179,308.694,539.11z M255.011,515.995
		c-5.457,4.362,1.319,12.847,6.786,8.475C267.246,520.109,260.469,511.627,255.011,515.995z M293.894,464.065
		c3.429-2.741,2.567-8.362-1.543-9.936c-1.508-0.58-2.559-0.876-4.147-1.037c-1.849-0.189-3.537,1.162-3.77,3.007
		c-0.18,1.588-0.125,2.68,0.108,4.281C285.169,464.733,290.465,466.807,293.894,464.065z"/>
</g>
<path fill="#EFDFBD" d="M647.848,712.867c-0.188-0.547-0.367-1.086-0.547-1.634c-1.883-5.563-9.439-5.574-11.326,0
	c-0.188,0.548-0.377,1.087-0.557,1.634C631.916,723.209,651.377,723.273,647.848,712.867z"/>
<path fill="#EFDFBD" d="M5.847,123.784c-6.462,0-6.462,10.043,0,10.043C12.318,133.827,12.328,123.784,5.847,123.784z"/>
<path fill="#FFFFFF" d="M343.421,101.986c-0.269-0.321-0.547-0.646-0.817-0.969c-2.109-2.521-7.046-2.514-9.146,0l-0.816,0.969
	c-4.084,4.894-1.643,13.008,5.394,13.008C345.037,114.992,347.497,106.883,343.421,101.986z"/>
<path opacity="0.08" fill="#FFFFFF" enable-background="new    " d="M468.201,99.76c0,0-21.368,100.073,176.632,154.74
	c0,0,30.11,3.333,55.389,25.333c0,0,9.644-102.918-41.276-110.667c0,0-38.756-73.417-68.11-84.002
	C590.833,85.165,588.902,57.686,468.201,99.76z"/>
<g>
	<g>
		<g>
			<g>
				<path fill="#FFFFFF" d="M687.484,177.88c-9.229-10.111-24.514-13.109-34.617-22.677c-11.455-10.865-13.572-27.018-23.471-38.986
					c-12.633-15.281-33.4-34.516-52.844-40.61c-36.79-11.534-72.054,13.361-106.628,21.229c-1.563,0.35-2.049,1.768-1.725,2.926
					c-1.599-0.48-3.213-0.951-4.775-1.467c-7.836-2.621-15.221-6.288-22.807-9.401c-1.785,1.575-3.51,3.217-5.115,4.94
					c9.307,3.563,18.264,8.4,27.715,11.385c-0.023,0.194-0.08,0.369-0.071,0.584c0.315,8.136,1.521,16.587,3.136,24.603
					c0,0.056-0.021,0.101-0.011,0.157c1.384,7.49,5.86,14.479,10.136,20.933c0.205,0.351,0.412,0.709,0.627,1.05
					c0.055,0.085,0.135,0.121,0.196,0.202c0.413,0.617,0.837,1.266,1.237,1.876c7.783,11.883,14.98,27.279,24.754,37.731
					c17.496,18.692,40.58,28.525,62.382,40.176c0.058,0.186,0.127,0.358,0.183,0.543c5.939,3.065,13.213,4.492,19.395,7.082
					c16.615,6.967,34.048,13.126,51.791,16.69c15.466,3.102,30.688,6.266,44.671,13.886c5.243,2.859,9.901,9.366,15.61,10.578
					c0.396,0.895,0.816,1.719,1.211,2.626c1.095,2.584,4.82,0.798,3.912-1.782c-10.465-29.941-27.572-51.996-47.93-75.956
					c-16.945-19.938-34.105-46-54.697-62.3c-22.277-17.649-47.625-27.551-74.875-32.469c-16.604-2.998-35.437-5.807-52.291-10.403
					c33.164-4.968,68.986-29.409,102.188-18.157c19.699,6.675,48.674,35.545,57.299,53.379
					c8.313,17.188,16.821,26.303,32.607,36.979c23.178,15.667,27.02,28.466,31.633,55.237c2.814,16.412,3.947,32.339,4.863,48.885
					c0.271,4.973,7.936,3.725,7.656-1.216C707.215,246.997,708.703,201.132,687.484,177.88z M513.914,114.74
					c30.148,5.589,58.045,13.712,82.676,33.517c21.104,16.978,39.529,45.063,56.357,66.353
					c14.961,18.927,28.264,35.267,38.998,55.723c-11.311-9.707-24.924-14.771-40.281-18.656
					c-16.67-4.214-33.596-7.068-49.852-13.163c-6.896-2.585-13.104-6.382-19.854-9.141c-3.662-1.495-8.813-2.652-13.356-4.181
					c-0.815-0.848-2.082-1.504-3.304-1.313c-0.996-0.44-2.045-0.862-2.871-1.389c0.02,0.047,0.035,0.096,0.054,0.141
					c-25.829-13.495-48.188-26.03-64.894-51.511c-4.488-6.842-10.268-12.781-15.17-19.325c0.314-0.673,0.369-1.458-0.018-2.269
					c-2.396-4.995-5.979-9.725-8.671-14.554c0.284,0.17,0.558,0.341,0.845,0.512c-0.539-1.739-1.063-3.48-1.445-5.275
					c-1.66-7.843-2.451-15.775-4.469-23.535C483.334,110.397,499.168,112.008,513.914,114.74z"/>
			</g>
		</g>
		<g>
			<g>
				<path fill="#FFFFFF" d="M489.672,124.475c0.08,7.616-0.539,15.048,0.396,22.637c0.125,1.093,1.813,0.821,1.678-0.265
					c-1.033-8.329,0.242-16.56-0.422-24.849c-0.279-3.37-1.463-6.404-1.186-9.848c0.18-2.221,0.689-3.765,0.232-6.021
					c-0.072-0.381-0.719-0.412-0.719,0.019c-0.012,2.607-0.951,4.882-1.121,7.434C488.289,117.137,489.635,120.893,489.672,124.475z
					 M527.996,108.072c4.166-6.094,10.754-11.224,15.887-16.587c5.646-5.888,12.406-10.583,17.594-16.904
					c0.205-0.247-0.162-0.588-0.395-0.384c-6.176,5.262-12.568,10.609-18.186,16.453c-5.205,5.413-11.703,10.443-15.971,16.65
					C526.453,107.996,527.512,108.772,527.996,108.072z M554.205,92.495c-3.221,2.71-5.869,5.874-8.633,9.023
					c-2.91,3.293-6.301,6.081-8.572,9.882c-0.324,0.538,0.457,1.122,0.797,0.579c3.555-5.652,10.18-11.744,15.027-16.3
					c3.188-2.984,6.641-5.112,10.492-7.158c3.223-1.705,7.025-5.592,10.332-6.391c0.375-0.089,0.43-0.745-0.021-0.745
					c-3.008-0.013-4.381,1.491-6.75,3.178C562.76,87.504,558.102,89.223,554.205,92.495z M565.139,101.973
					c-6.428,6.243-10.906,14.567-19.027,18.836c-0.771,0.404-0.232,1.628,0.557,1.238c3.068-1.53,5.027-2.047,7.146-4.517
					c2.307-2.674,5.113-4.837,7.271-7.634c3.51-4.551,7.082-8.042,11.435-11.745c3.913-3.319,7.073-7.437,11.524-10.073
					c0.476-0.283,0.342-1.214-0.324-1.042c-3.418,0.9-5.205,2.781-7.682,5.26C572.598,95.753,568.621,98.58,565.139,101.973z
					 M477.393,139.819c-0.961-7.167-1.65-15.138-1.006-22.331c0.467-5.146,2.189-9.858,0.396-14.882
					c-0.162-0.421-0.718-0.167-0.699,0.211c0.23,6.148-1.258,11.935-1.283,18.036c-0.025,6.359,0.412,12.88,1.318,19.167
					C476.242,140.847,477.508,140.645,477.393,139.819z M479.51,116.258c0.521,9.555-0.215,19.122,0.996,28.65
					c0.125,0.965,1.615,0.727,1.49-0.233c-0.959-7.479-0.252-14.743-0.475-22.21c-0.182-5.758-2.426-12.835,3.014-16.918
					c0.379-0.288-0.016-0.813-0.42-0.669C479.313,106.569,479.275,111.868,479.51,116.258z M616.137,203.631
					c0.307-5.398,2.104-10.367,3.34-15.591c1.313-5.578,1.475-11.363,2.209-17.04c0.072-0.521-0.689-0.705-0.889-0.215
					c-2.164,5.406-1.912,11.305-3.223,16.937c-1.229,5.264-2.953,10.264-3.232,15.707
					C614.271,204.587,616.066,204.798,616.137,203.631z M608.023,161.418c0.502-2.187,1.059-3.119,0.105-5.246
					c-0.162-0.359-0.791-0.305-0.799,0.126c-0.043,3.455-1.875,6.835-2.324,10.322c-0.607,4.756-0.557,9.585-1.293,14.33
					c-1.184,7.723-4.182,15.057-2.367,22.928c0.25,1.14,2.063,0.86,1.803-0.287c-2.072-8.963,2.039-17.916,2.854-26.819
					C606.488,171.503,606.875,166.571,608.023,161.418z M625.994,154.068c1.973-0.155,3.715-0.763,5.52-1.568
					c2.271-1.021,4.479-1.75,6.865-2.45c0.422-0.122,0.484-0.777-0.018-0.831c-4.416-0.466-8.195,3.281-12.564,3.644
					C625.006,152.924,625.203,154.135,625.994,154.068z M622.018,164.178c4.604-0.803,8.982-2.136,13.438-3.518
					c2.424-0.756,13.258-4.771,15.061-1.676c0.234,0.421,0.988,0.287,0.871-0.265c-0.098-0.498-0.188-0.996-0.295-1.495
					c-0.055-0.328-0.307-0.557-0.629-0.604c-9.479-1.454-19.594,4.39-28.688,6.005C620.77,162.801,621.021,164.354,622.018,164.178z
					 M687.889,191.473c-7.896,0.13-15.994,2.195-23.775,3.482c-1.023,0.171-0.779,1.755,0.254,1.598
					c7.799-1.185,16.146-1.732,23.686-4.053C688.553,192.349,688.408,191.465,687.889,191.473z M638.074,174.73
					c7.574-0.648,15.313,0.323,22.646-2.067c0.511-0.167,0.367-1.037-0.172-1.048c-6.086-0.094-12.313,0.595-18.418,0.81
					c-5.133,0.185-12.018,2.419-16.416-1.021c-0.979-0.767-2.119,0.801-1.139,1.571C628.354,175.946,633.604,175.115,638.074,174.73
					z M589.715,112.668c-2.354,2.067-5.314,5.21-8.402,6.09c-1.021,0.292-0.764,1.965,0.271,1.656
					c7.09-2.105,11.166-9.938,16.578-14.24c0.422-0.328-0.01-0.992-0.484-0.781C594.354,106.856,592.379,110.329,589.715,112.668z
					 M668.861,244.924c0.26-2.812,0.018-4.771,1.203-7.463c0.57-1.324,0.77-2.199,0.615-3.657c-0.045-0.467-0.705-0.399-0.787,0.022
					c-0.439,2.343-2.219,3.952-2.701,6.229c-0.521,2.463,0.287,4.878-0.611,7.364c-1.273,3.585-2.971,5.798-2.666,9.788
					c0.072,0.981,1.59,0.734,1.508-0.242C665.064,252.221,668.449,249.365,668.861,244.924z M676.975,243.707
					c-2.809,5.758-4.416,13.015-4.721,19.392c-0.045,1.064,1.607,1.252,1.652,0.188c0.285-6.776,3.111-12.756,4.074-19.34
					C678.07,243.34,677.227,243.205,676.975,243.707z M685.502,254.931c-0.307-0.202-0.611-0.184-0.879-0.076
					c0.107-0.934,0.143-1.867,0.045-2.8c-0.045-0.372-0.604-0.341-0.637,0.013c-0.656,5.067-3.25,10.311-1.652,15.42
					c0.268,0.857,1.543,0.273,1.273-0.577c-1.068-3.415,0.105-6.882,0.734-10.354c2.199,1.288,4.613,1.414,7.109,1.148
					c2.611-0.273,6.139-0.675,8.436-2.001c0.441-0.247,0.361-0.871-0.143-0.96C695.051,253.877,690.115,257.992,685.502,254.931z
					 M689.838,263.243c-1.285,0.16-0.961,2.217,0.313,1.979c2.988-0.566,6.316-0.754,9.12-1.989
					c0.431-0.191,0.321-0.875-0.153-0.924C696.074,262,692.854,262.853,689.838,263.243z M634.781,181.039
					c-1.133-0.854-2.414,0.925-1.285,1.775c3.502,2.641,9.092,1.902,13.186,1.62c8.203-0.57,16.453-2.038,24.439-3.898
					c0.953-0.218,0.738-1.576-0.23-1.485c-6.732,0.61-13.34,1.988-20.053,2.771C646.35,182.35,638.666,183.957,634.781,181.039z
					 M674.676,238.075c-0.842,0.139-0.645,1.448,0.217,1.317c6.598-1.005,13.645-1.472,20.033-3.425
					c0.414-0.125,0.297-0.848-0.125-0.843C688.104,235.253,681.266,236.989,674.676,238.075z M689.826,246.607
					c-2.027,0.489-4.127,0.731-6.191,1.037c-1.066,0.156-0.809,1.831,0.271,1.66c4.146-0.678,9.496-1.073,12.594-4.277
					c0.385-0.395,0.035-1.046-0.512-0.835C693.877,244.987,692.053,246.077,689.826,246.607z M639.025,227.668
					c0.188,4.254-2.064,7.925-2.369,12.126c-0.309,4.142-0.574,8.303,0.313,12.386c0.232,1.077,1.938,0.813,1.695-0.269
					c-1.076-4.955-1.039-11.477,0.521-16.382c0.916-2.857,1.992-5.236,0.791-8.153C639.744,226.811,639,227.134,639.025,227.668z
					 M591.238,181.138c0.609-3.926,1.258-7.849,1.912-11.771c0.439-2.592,0.906-13.288,3.273-14.592
					c0.354-0.188,0.234-0.774-0.195-0.693c-0.492,0.089-0.986,0.18-1.473,0.269c-0.277,0.049-0.457,0.26-0.502,0.534
					c-1.775,9.537-3.287,19.159-4.613,28.767c-1.053,7.53-3.732,16.78-2.117,24.279c0.135,0.619,1.111,0.471,0.979-0.152
					C586.842,199.709,589.982,189.212,591.238,181.138z M630.283,231.536c0.438-3.523,2.746-6.835,1.221-10.236
					c-0.205-0.458-0.861-0.227-0.826,0.247c0.215,2.45-0.852,4.501-1.383,6.799c-0.52,2.253-0.582,4.556-0.852,6.839
					c-0.514,4.425-1.807,8.46-1.121,12.943c0.105,0.729,1.193,0.548,1.131-0.175C627.932,242.576,629.602,236.873,630.283,231.536z
					 M544.117,137.611c0.035-0.502-0.674-0.604-0.771-0.106c-1.49,7.646-2.479,14.926-4.486,22.501
					c-1.275,4.848-2.094,9.075-2.264,14.083c-0.232,6.853-2.027,13.273-2.711,19.998c-0.502,4.807-0.15,9.72-0.557,14.532
					c-0.055,0.608,0.898,0.743,0.951,0.13c0.357-4.135,0.377-8.212,0.604-12.337c0.402-7.414,2.494-14.632,2.789-22.177
					C538.146,161.814,543.311,150.154,544.117,137.611z M528.123,163.51c-1.043,4.483-3.699,9.151-2.586,13.908
					c0.217,0.925,1.695,0.758,1.482-0.181c-1.078-4.646,1.73-9.68,2.756-14.168c0.645-2.836,1.219-5.919,2.412-8.565
					c0.906-2.01,2.072-3.554,2.369-5.78c0.08-0.552-0.734-0.795-0.951-0.261c-1.014,2.509-2.646,4.681-3.51,7.252
					C529.254,158.228,528.725,160.929,528.123,163.51z M509.893,160.432c1.338-6.71,3.889-13.002,5.107-19.68
					c0.646-3.563,1.75-6.947,2.639-10.447c1.016-3.954,1.885-10.407,4.416-13.926c0.102-0.142,0.145-0.342,0.07-0.503
					c-0.088-0.193-0.178-0.381-0.268-0.57c-0.279-0.597-1.24-0.22-0.951,0.382c0.627,1.359-3.033,8.888-3.395,10.21
					c-1.021,3.808-2.027,7.705-2.906,11.538c-1.742,7.629-3.557,15.24-5.102,22.942
					C509.453,160.624,509.848,160.678,509.893,160.432z M490.613,154.49c-0.387,3.357-1.061,7.078,0.438,10.221
					c0.449,0.965,2.014,0.357,1.545-0.615c-1.533-3.272,0.564-6.736-1.221-9.801C491.188,153.964,490.658,154.148,490.613,154.49z
					 M552.77,188.996c-1.561,4.566-1.488,9.445-2.629,14.153c-0.621,2.581-1.086,5.21-1.613,7.811
					c-0.352,1.741-0.082,3.416-0.424,5.129c-0.217,1.123,1.633,1.387,1.76,0.247c0.232-2.064,0.02-3.958,0.502-6.032
					c0.609-2.67,1.031-5.354,1.68-8.02c0.996-4.11,1.857-8.932,1.822-13.138C553.855,188.579,552.949,188.481,552.77,188.996z"/>
			</g>
		</g>
		<g>
			<path fill="#FFFFFF" d="M442.074,88.788c-2.703-1.36-5.699-2.164-8.377-3.552c-0.008,0.036-0.025,0.072-0.035,0.108
				c-3.141-1.122-6.229,3.263-3.088,5.282c0.242,0.151,0.482,0.251,0.719,0.395l-0.01,0.016c0.02,0.004,0.045,0.013,0.063,0.018
				c2.893,1.786,5.707,3.177,9.012,3.985C444.164,95.972,445.188,90.354,442.074,88.788z"/>
		</g>
	</g>
</g>
</svg>
