<?xml version="1.0" encoding="utf-8"?>
<!-- Generator: Adobe Illustrator 16.0.0, SVG Export Plug-In . SVG Version: 6.00 Build 0)  -->
<!DOCTYPE svg PUBLIC "-//W3C//DTD SVG 1.1//EN" "http://www.w3.org/Graphics/SVG/1.1/DTD/svg11.dtd">
<svg version="1.1" id="Layer_1" xmlns="http://www.w3.org/2000/svg" xmlns:xlink="http://www.w3.org/1999/xlink" x="0px" y="0px"
	 width="841.89px" height="595.28px" viewBox="0 0 841.89 595.28" enable-background="new 0 0 841.89 595.28" xml:space="preserve">
<g>
	<path d="M48.791,47.172l-14.99,50.439v28.613H14.758V97.611L0.305,47.172h18.884c2.951,15.431,4.615,25.815,4.993,31.152
		c1.139-8.434,3.047-18.819,5.725-31.152H48.791z"/>
	<path d="M99.035,47.172v52.832c0,5.99-0.195,10.197-0.586,12.622c-0.391,2.425-1.546,4.916-3.467,7.471
		c-1.921,2.556-4.452,4.492-7.593,5.811c-3.142,1.318-6.844,1.978-11.108,1.978c-4.72,0-8.887-0.781-12.5-2.344
		s-6.315-3.597-8.105-6.104c-1.791-2.506-2.849-5.151-3.174-7.935c-0.326-2.783-0.488-8.634-0.488-17.554V47.172H72.57v59.277
		c0,3.451,0.187,5.656,0.562,6.616c0.374,0.96,1.131,1.44,2.271,1.44c1.302,0,2.14-0.529,2.515-1.587
		c0.374-1.058,0.562-3.556,0.562-7.495V47.172H99.035z"/>
	<path d="M152.893,47.172v79.053h-18.018l-10.693-35.938v35.938h-17.188V47.172h17.188l11.523,35.596V47.172H152.893z"/>
	<path d="M196.679,47.172l11.755,79.053h-21.008l-1.103-14.209h-7.354l-1.236,14.209h-21.252l10.486-79.053H196.679z
		 M185.785,98.002c-1.041-8.954-2.084-20.021-3.131-33.203c-2.094,15.138-3.41,26.206-3.945,33.203H185.785z"/>
</g>
<g>
	<path d="M51.121,151.231v52.832c0,5.99-0.195,10.197-0.586,12.622c-0.391,2.425-1.546,4.916-3.467,7.471
		c-1.921,2.556-4.452,4.492-7.593,5.811c-3.142,1.318-6.844,1.978-11.108,1.978c-4.72,0-8.887-0.781-12.5-2.344
		s-6.315-3.597-8.105-6.104c-1.791-2.506-2.849-5.151-3.174-7.935c-0.326-2.783-0.488-8.634-0.488-17.554v-46.777h20.557v59.277
		c0,3.451,0.187,5.656,0.562,6.616c0.374,0.96,1.131,1.44,2.271,1.44c1.302,0,2.14-0.529,2.515-1.587
		c0.374-1.058,0.562-3.556,0.562-7.495v-58.252H51.121z"/>
	<path d="M79.637,151.231v79.053H59.08v-79.053H79.637z"/>
	<path d="M134.617,151.231v52.832c0,5.99-0.195,10.197-0.586,12.622c-0.391,2.425-1.546,4.916-3.467,7.471
		c-1.921,2.556-4.452,4.492-7.593,5.811c-3.142,1.318-6.844,1.978-11.108,1.978c-4.72,0-8.887-0.781-12.5-2.344
		s-6.315-3.597-8.105-6.104c-1.791-2.506-2.849-5.151-3.174-7.935c-0.326-2.783-0.488-8.634-0.488-17.554v-46.777h20.557v59.277
		c0,3.451,0.187,5.656,0.562,6.616c0.374,0.96,1.131,1.44,2.271,1.44c1.302,0,2.14-0.529,2.515-1.587
		c0.374-1.058,0.562-3.556,0.562-7.495v-58.252H134.617z"/>
	<path d="M184.251,151.231l-7.227,34.961l10.889,44.092H168.87c-2.276-7.881-4.359-17.484-6.25-28.809
		c-0.517,5.016-1.24,10.323-2.167,15.919l-1.934,12.89h-20.02l7.471-44.092l-7.471-34.961h19.873
		c0.362,2.177,1.076,5.805,2.143,10.885c0.861,3.871,1.563,7.437,2.105,10.697l4.395-21.582H184.251z"/>
	<path d="M208.445,151.231h15.381c9.928,0,16.642,0.456,20.142,1.367c3.499,0.912,6.16,2.409,7.983,4.492
		c1.823,2.083,2.962,4.403,3.418,6.958c0.455,2.556,0.684,7.577,0.684,15.063v27.686c0,7.097-0.334,11.841-1.001,14.233
		c-0.667,2.393-1.831,4.265-3.491,5.615c-1.66,1.351-3.711,2.295-6.152,2.832s-6.12,0.806-11.035,0.806h-25.928V151.231z
		 M229.002,164.756v52.002c2.962,0,4.785-0.594,5.469-1.782c0.684-1.188,1.025-4.419,1.025-9.692v-30.713
		c0-3.581-0.114-5.875-0.342-6.885c-0.228-1.009-0.749-1.75-1.563-2.222C232.778,164.993,231.248,164.756,229.002,164.756z"/>
	<path d="M263.719,151.231h34.277v15.82h-13.721v14.99h12.842v15.039h-12.842v17.383h15.088v15.82h-35.645V151.231z"/>
	<path d="M348.826,175.157h-19.092v-5.859c0-2.734-0.244-4.476-0.732-5.225c-0.488-0.749-1.303-1.123-2.441-1.123
		c-1.237,0-2.173,0.505-2.808,1.515s-0.952,2.541-0.952,4.593c0,2.639,0.356,4.626,1.07,5.961c0.682,1.336,2.618,2.947,5.81,4.833
		c9.15,5.431,14.913,9.888,17.29,13.371c2.376,3.483,3.564,9.099,3.564,16.846c0,5.632-0.659,9.782-1.978,12.451
		c-1.318,2.669-3.866,4.907-7.642,6.714c-3.776,1.807-8.171,2.71-13.184,2.71c-5.502,0-10.197-1.042-14.087-3.125
		c-3.891-2.083-6.438-4.736-7.642-7.959c-1.205-3.223-1.807-7.796-1.807-13.721v-5.176h19.092v9.619
		c0,2.962,0.269,4.867,0.806,5.713c0.537,0.847,1.489,1.27,2.856,1.27s2.384-0.537,3.052-1.611c0.667-1.074,1.001-2.669,1.001-4.785
		c0-4.655-0.635-7.698-1.904-9.131c-1.303-1.432-4.509-3.825-9.619-7.178c-5.111-3.385-8.496-5.843-10.156-7.373
		c-1.66-1.53-3.036-3.646-4.126-6.348c-1.091-2.702-1.636-6.152-1.636-10.352c0-6.055,0.772-10.481,2.319-13.281
		c1.546-2.799,4.044-4.988,7.495-6.567c3.45-1.579,7.617-2.368,12.5-2.368c5.338,0,9.888,0.863,13.647,2.588
		c3.76,1.726,6.25,3.898,7.471,6.519c1.221,2.621,1.831,7.072,1.831,13.354V175.157z"/>
	<path d="M377.537,151.231v79.053H356.98v-79.053H377.537z"/>
	<path d="M432.957,180.333H412.4v-7.178c0-4.524-0.195-7.356-0.586-8.496c-0.391-1.139-1.318-1.709-2.783-1.709
		c-1.27,0-2.133,0.488-2.588,1.465c-0.456,0.977-0.684,3.483-0.684,7.52v37.939c0,3.548,0.228,5.884,0.684,7.007
		c0.455,1.123,1.367,1.685,2.734,1.685c1.497,0,2.515-0.635,3.052-1.904s0.806-3.743,0.806-7.422v-9.375h-4.15v-12.012h24.072
		v42.432h-12.918l-1.901-5.664c-1.4,2.441-3.169,4.272-5.302,5.493c-2.134,1.221-4.65,1.831-7.549,1.831
		c-3.454,0-6.688-0.838-9.7-2.515c-3.014-1.676-5.302-3.751-6.866-6.226c-1.563-2.474-2.541-5.07-2.932-7.788
		c-0.391-2.718-0.586-6.795-0.586-12.231v-23.486c0-7.552,0.406-13.037,1.221-16.455c0.813-3.418,3.149-6.551,7.007-9.399
		c3.857-2.848,8.846-4.272,14.966-4.272c6.021,0,11.019,1.237,14.99,3.711c3.971,2.474,6.559,5.412,7.764,8.813
		c1.204,3.402,1.807,8.342,1.807,14.819V180.333z"/>
	<path d="M461.473,151.231v79.053h-20.557v-79.053H461.473z"/>
	<path d="M515.623,151.231v79.053h-18.018l-10.693-35.938v35.938h-17.188v-79.053h17.188l11.523,35.596v-35.596H515.623z"/>
	<path d="M523.875,151.231h34.277v15.82h-13.721v14.99h12.842v15.039h-12.842v17.383h15.088v15.82h-35.645V151.231z"/>
	<path d="M565.428,151.231h14.551c9.7,0,16.268,0.375,19.702,1.123c3.434,0.749,6.233,2.661,8.398,5.737
		c2.164,3.076,3.247,7.983,3.247,14.722c0,6.152-0.766,10.287-2.295,12.402c-1.53,2.116-4.541,3.386-9.033,3.809
		c4.068,1.009,6.803,2.36,8.203,4.053c1.399,1.693,2.271,3.247,2.612,4.663s0.513,5.314,0.513,11.694v20.85h-19.092v-26.27
		c0-4.231-0.334-6.852-1.001-7.861c-0.668-1.009-2.417-1.514-5.249-1.514v35.645h-20.557V151.231z M585.984,164.756v17.578
		c2.311,0,3.931-0.317,4.858-0.952s1.392-2.693,1.392-6.177v-4.346c0-2.506-0.448-4.15-1.343-4.932
		C589.996,165.147,588.36,164.756,585.984,164.756z"/>
</g>
<g>
	<path d="M81.785,255.29l-9.153,79.052H46.967c-2.35-12.145-4.423-25.963-6.222-41.455c-0.82,6.642-2.731,20.46-5.733,41.455H9.493
		L0.291,255.29h19.971l2.172,27.583l2.101,26.665c0.758-13.799,2.653-31.881,5.684-54.248h21.346
		c0.284,2.312,1.031,11.003,2.242,26.074l2.271,30.078c1.169-19.136,3.082-37.853,5.737-56.152H81.785z"/>
	<path d="M106.395,255.29v79.052H85.838V255.29H106.395z"/>
	<path d="M156.053,255.29v15.82h-12.207v63.232h-20.557V271.11h-12.158v-15.82H156.053z"/>
	<path d="M208.006,255.29v79.052h-20.557v-33.203h-6.152v33.203H160.74V255.29h20.557v28.271h6.152V255.29H208.006z"/>
</g>
<g>
	<path d="M81.785,359.349l-9.153,79.053H46.967c-2.35-12.146-4.423-25.964-6.222-41.455c-0.82,6.643-2.731,20.461-5.733,41.455
		H9.493l-9.202-79.053h19.971l2.172,27.583l2.101,26.665c0.758-13.799,2.653-31.882,5.684-54.248h21.346
		c0.284,2.312,1.031,11.003,2.242,26.074l2.271,30.078c1.169-19.136,3.082-37.854,5.737-56.152H81.785z"/>
	<path d="M85.838,359.349h34.277v15.82h-13.721v14.99h12.842v15.039h-12.842v17.383h15.088v15.82H85.838V359.349z"/>
	<path d="M127.391,359.349h20.508c6.478,0,11.385,0.504,14.722,1.513c3.336,1.009,6.03,3.05,8.081,6.124s3.076,8.026,3.076,14.857
		c0,4.62-0.725,7.841-2.173,9.662c-1.449,1.822-4.305,3.221-8.569,4.196c4.752,1.075,7.975,2.858,9.668,5.35
		c1.692,2.492,2.539,6.312,2.539,11.457v7.328c0,5.342-0.61,9.3-1.831,11.872c-1.221,2.573-3.166,4.332-5.835,5.276
		c-2.669,0.944-8.138,1.417-16.406,1.417h-23.779V359.349z M147.947,372.874v17.578c0.879-0.032,1.563-0.049,2.051-0.049
		c2.018,0,3.304-0.496,3.857-1.489c0.553-0.992,0.83-3.833,0.83-8.521c0-2.474-0.228-4.207-0.684-5.2
		c-0.456-0.992-1.05-1.619-1.782-1.88C151.487,373.054,150.063,372.907,147.947,372.874z M147.947,402.757v22.119
		c2.897-0.098,4.744-0.553,5.542-1.367c0.797-0.813,1.196-2.815,1.196-6.006v-7.373c0-3.385-0.358-5.436-1.074-6.152
		C152.895,403.262,151.007,402.854,147.947,402.757z"/>
	<path d="M200.242,359.349h15.381c9.928,0,16.642,0.456,20.142,1.367c3.499,0.912,6.16,2.409,7.983,4.492
		c1.823,2.084,2.962,4.403,3.418,6.958c0.456,2.556,0.684,7.577,0.684,15.063v27.686c0,7.097-0.334,11.841-1.001,14.233
		c-0.667,2.393-1.831,4.265-3.491,5.615c-1.66,1.352-3.711,2.295-6.152,2.832s-6.12,0.806-11.035,0.806h-25.928V359.349z
		 M220.799,372.874v52.002c2.962,0,4.785-0.594,5.469-1.782c0.684-1.188,1.025-4.419,1.025-9.692v-30.713
		c0-3.58-0.114-5.875-0.342-6.885c-0.228-1.009-0.749-1.749-1.563-2.222C224.575,373.11,223.045,372.874,220.799,372.874z"/>
	<path d="M255.516,359.349h34.277v15.82h-13.721v14.99h12.842v15.039h-12.842v17.383h15.088v15.82h-35.645V359.349z"/>
	<path d="M345.945,359.349l-10.461,79.053h-31.226l-11.877-79.053h21.68c2.519,21.775,4.318,40.201,5.396,55.273
		c1.062-15.233,2.189-28.758,3.382-40.573l1.427-14.7H345.945z"/>
	<path d="M349.412,359.349h34.277v15.82h-13.721v14.99h12.842v15.039h-12.842v17.383h15.088v15.82h-35.645V359.349z"/>
	<path d="M411.522,359.349v63.232h12.5v15.82h-33.057v-79.053H411.522z"/>
	<path d="M474.461,405.638c0,7.943-0.188,13.566-0.561,16.87c-0.375,3.305-1.547,6.323-3.516,9.058
		c-1.971,2.734-4.631,4.834-7.984,6.299s-7.26,2.197-11.719,2.197c-4.232,0-8.031-0.692-11.4-2.075s-6.08-3.458-8.131-6.226
		c-2.051-2.767-3.271-5.777-3.662-9.033c-0.391-3.255-0.586-8.951-0.586-17.09v-13.525c0-7.942,0.188-13.565,0.563-16.87
		c0.373-3.304,1.545-6.323,3.516-9.058c1.969-2.734,4.629-4.834,7.982-6.299s7.26-2.197,11.719-2.197
		c4.232,0,8.033,0.692,11.402,2.075c3.369,1.384,6.078,3.459,8.129,6.226c2.051,2.768,3.271,5.778,3.662,9.033
		c0.391,3.256,0.586,8.952,0.586,17.09V405.638z M453.904,379.661c0-3.678-0.203-6.03-0.609-7.056
		c-0.408-1.025-1.246-1.538-2.516-1.538c-1.074,0-1.896,0.415-2.465,1.245c-0.57,0.83-0.855,3.28-0.855,7.349v36.914
		c0,4.59,0.188,7.422,0.563,8.496c0.373,1.074,1.244,1.611,2.611,1.611c1.4,0,2.295-0.618,2.686-1.855
		c0.391-1.236,0.586-4.183,0.586-8.838V379.661z"/>
	<path d="M482.127,359.349h20.703c5.6,0,9.904,0.439,12.916,1.318c3.01,0.879,5.273,2.148,6.787,3.809s2.539,3.671,3.076,6.03
		c0.537,2.36,0.805,6.015,0.805,10.962v6.885c0,5.046-0.521,8.725-1.563,11.035c-1.041,2.312-2.953,4.086-5.736,5.322
		c-2.783,1.237-6.422,1.855-10.914,1.855h-5.518v31.836h-20.557V359.349z M502.684,372.874v20.117
		c0.586,0.033,1.09,0.049,1.514,0.049c1.889,0,3.199-0.464,3.932-1.392s1.098-2.856,1.098-5.786v-6.494
		c0-2.701-0.424-4.459-1.27-5.273C507.111,373.281,505.354,372.874,502.684,372.874z"/>
	<path d="M595.75,359.349v79.053h-17.969l-0.023-53.369l-7.154,53.369h-12.744l-7.543-52.148l-0.025,52.148h-17.969v-79.053h26.6
		c0.789,4.753,1.602,10.354,2.439,16.806l2.92,20.108l4.723-36.914H595.75z"/>
	<path d="M604.002,359.349h34.277v15.82h-13.721v14.99H637.4v15.039h-12.842v17.383h15.088v15.82h-35.645V359.349z"/>
	<path d="M691.453,359.349v79.053h-18.018l-10.693-35.938v35.938h-17.188v-79.053h17.188l11.523,35.596v-35.596H691.453z"/>
	<path d="M741.111,359.349v15.82h-12.207v63.232h-20.557v-63.232h-12.158v-15.82H741.111z"/>
</g>
<g>
	<path d="M47.947,487.333H28.855v-5.859c0-2.734-0.244-4.476-0.732-5.225c-0.488-0.748-1.302-1.123-2.441-1.123
		c-1.237,0-2.173,0.505-2.808,1.516c-0.635,1.01-0.952,2.54-0.952,4.593c0,2.638,0.356,4.625,1.07,5.961
		c0.682,1.336,2.618,2.947,5.809,4.833c9.151,5.432,14.914,9.889,17.291,13.371c2.376,3.483,3.564,9.099,3.564,16.846
		c0,5.632-0.659,9.782-1.978,12.451c-1.318,2.67-3.866,4.907-7.642,6.714c-3.776,1.807-8.171,2.71-13.184,2.71
		c-5.501,0-10.197-1.042-14.087-3.125c-3.89-2.083-6.438-4.736-7.642-7.959c-1.205-3.223-1.807-7.796-1.807-13.721v-5.176H22.41
		v9.619c0,2.963,0.269,4.867,0.806,5.713c0.537,0.847,1.489,1.27,2.856,1.27s2.384-0.537,3.052-1.611
		c0.667-1.074,1.001-2.669,1.001-4.785c0-4.654-0.635-7.698-1.904-9.131c-1.302-1.432-4.509-3.824-9.619-7.178
		c-5.111-3.385-8.496-5.843-10.156-7.373c-1.66-1.529-3.036-3.646-4.126-6.348c-1.091-2.701-1.636-6.152-1.636-10.352
		c0-6.055,0.773-10.481,2.319-13.281c1.546-2.799,4.044-4.988,7.495-6.567c3.45-1.578,7.617-2.368,12.5-2.368
		c5.338,0,9.888,0.863,13.647,2.588c3.76,1.726,6.25,3.898,7.471,6.519c1.221,2.621,1.831,7.072,1.831,13.354V487.333z"/>
	<path d="M105.101,463.407l-11.792,35.693l12.915,43.359h-21.24l-8.325-33.887v33.887H56.102v-79.053h20.557v30.713l9.155-30.713
		H105.101z"/>
	<path d="M130.32,463.407v79.053h-20.557v-79.053H130.32z"/>
	<path d="M159.129,463.407v63.232h12.5v15.82h-33.057v-79.053H159.129z"/>
	<path d="M197.166,463.407v63.232h12.5v15.82h-33.057v-79.053H197.166z"/>
</g>
</svg>
